<svg width="42" height="34" viewBox="0 0 42 34" fill="none" xmlns="http://www.w3.org/2000/svg">
<path d="M18.335 25.25L27.56 15.8656L24.69 12.9781L18.335 19.3719L13.825 14.9375H16.9V10.8125H6.65V21.125H10.75V17.6187L18.335 25.25ZM4.6 33.5C3.4725 33.5 2.50763 33.0964 1.7054 32.2893C0.903167 31.4822 0.501367 30.5107 0.5 29.375V4.625C0.5 3.49062 0.9018 2.51987 1.7054 1.71275C2.509 0.905625 3.47387 0.501375 4.6 0.5H29.2C30.3275 0.5 31.293 0.90425 32.0966 1.71275C32.9002 2.52125 33.3014 3.492 33.3 4.625V13.9062L41.5 5.65625V28.3437L33.3 20.0937V29.375C33.3 30.5094 32.8989 31.4808 32.0966 32.2893C31.2944 33.0978 30.3289 33.5014 29.2 33.5H4.6Z" fill="white"/>
</svg>
